<svg width="512" height="512" viewBox="0 0 512 512" fill="none" xmlns="http://www.w3.org/2000/svg"><svg xmlns="http://www.w3.org/2000/svg" viewBox="0 0 512 512">

  <rect width="512" height="512" fill="white"/>  <rect width="512" height="512" rx="15%" fill="#4b9460"/>

  <text x="256" y="340" font-size="280" text-anchor="middle">🌱</text>  <g fill="#fff">

</svg>    <circle cx="256" cy="180" r="50"/>

    <path d="M 256 240 Q 280 250 290 280 L 290 380 Q 290 400 270 400 L 240 400 Q 220 400 220 380 L 220 280 Q 230 250 256 240 Z"/>
    <path d="M 150 300 Q 130 290 120 260 L 100 200 Q 95 180 110 170 L 130 160 Q 145 160 155 175 L 180 220 Q 190 240 180 260 Q 170 280 150 300 Z"/>
    <path d="M 362 300 Q 382 290 392 260 L 412 200 Q 417 180 402 170 L 382 160 Q 367 160 357 175 L 332 220 Q 322 240 332 260 Q 342 280 362 300 Z"/>
  </g>
  <text x="256" y="470" font-family="sans-serif" font-size="140" font-weight="bold" text-anchor="middle" fill="#fff">🌱</text>
</svg>
